<svg xmlns="http://www.w3.org/2000/svg" viewBox="0 0 512 512">
  <defs>
    <linearGradient id="g" x1="72" y1="38" x2="440" y2="474" gradientUnits="userSpaceOnUse">
      <stop offset="0" stop-color="#22d3ee"/><stop offset=".45" stop-color="#7c3aed"/><stop offset="1" stop-color="#fb3d6b"/>
    </linearGradient>
    <linearGradient id="shine" x1="128" y1="96" x2="360" y2="360"><stop offset="0" stop-color="#fff" stop-opacity=".95"/><stop offset="1" stop-color="#fff" stop-opacity=".08"/></linearGradient>
    <filter id="shadow" x="-30%" y="-30%" width="160%" height="160%"><feDropShadow dx="0" dy="24" stdDeviation="22" flood-color="#27115f" flood-opacity=".38"/><feDropShadow dx="0" dy="4" stdDeviation="3" flood-color="#ffffff" flood-opacity=".4"/></filter>
  </defs>
  <rect width="512" height="512" rx="128" fill="#070b1d"/>
  <g filter="url(#shadow)">
    <path d="M257 54c93 0 170 72 178 163 9 104-73 199-178 199-48 0-92-19-124-50l-32 32c-15 15-40 4-40-17V270c0-14 11-25 25-25h111c22 0 33 26 18 41l-31 31c19 17 45 27 73 27 62 0 112-50 112-112S319 120 257 120c-35 0-66 16-87 42-13 17-37 20-54 7-17-14-20-39-6-56 34-37 86-59 147-59Z" fill="url(#g)"/>
    <path d="M151 179c16 0 29 13 29 29v100c0 16-13 29-29 29s-29-13-29-29V208c0-16 13-29 29-29Zm106-1c45 0 82 36 82 81s-37 81-82 81h-23c-16 0-29-13-29-29V207c0-16 13-29 29-29h23Zm-2 56v50h5c14 0 25-11 25-25s-11-25-25-25h-5Z" fill="#fff" opacity=".97"/>
    <path d="M121 93h191c54 0 102 31 125 75-32-37-80-57-133-57H121V93Z" fill="url(#shine)" opacity=".55"/>
  </g>
</svg>